<svg xmlns="http://www.w3.org/2000/svg" xmlns:xlink="http://www.w3.org/1999/xlink" width="500" zoomAndPan="magnify" viewBox="0 0 375 374.999991" height="500" preserveAspectRatio="xMidYMid meet" version="1.0"><defs><g/><clipPath id="id1"><path d="M 126 86.722656 L 248.921875 86.722656 L 248.921875 119 L 126 119 Z M 126 86.722656 " clip-rule="nonzero"/></clipPath><clipPath id="id2"><path d="M 229 163 L 248.921875 163 L 248.921875 178 L 229 178 Z M 229 163 " clip-rule="nonzero"/></clipPath><clipPath id="id3"><path d="M 164 131 L 226 131 L 226 205.222656 L 164 205.222656 Z M 164 131 " clip-rule="nonzero"/></clipPath></defs><rect x="-37.5" width="450" fill="#ffffff" y="-37.499999" height="449.999989" fill-opacity="1"/><rect x="-37.5" width="450" fill="#ffffff" y="-37.499999" height="449.999989" fill-opacity="1"/><rect x="-37.5" width="450" fill="#ffffff" y="-37.499999" height="449.999989" fill-opacity="1"/><g clip-path="url(#id1)"><path fill="#00adef" d="M 242.144531 86.722656 C 239.078125 86.722656 236.582031 88.746094 235.71875 91.535156 L 231.59375 91.535156 C 220.5625 91.535156 211.449219 100.007812 210.585938 110.980469 C 207.515625 113.386719 203.679688 114.734375 199.652344 114.640625 C 196.390625 112.328125 192.648438 111.078125 188.621094 110.789062 C 187.949219 110.789062 187.179688 110.789062 186.507812 110.789062 C 182.480469 110.980469 178.738281 112.328125 175.476562 114.640625 C 171.449219 114.734375 167.613281 113.386719 164.542969 110.980469 C 163.488281 100.007812 154.375 91.535156 143.34375 91.535156 L 139.21875 91.535156 C 138.355469 88.746094 135.859375 86.722656 132.792969 86.722656 C 129.050781 86.722656 126.078125 89.707031 126.078125 93.460938 C 126.078125 97.214844 129.050781 100.199219 132.792969 100.199219 C 135.859375 100.199219 138.355469 98.179688 139.21875 95.386719 L 143.34375 95.386719 C 152.648438 95.386719 160.226562 102.703125 160.609375 112.039062 C 160.609375 112.617188 160.898438 113.097656 161.28125 113.386719 C 165.40625 116.949219 170.683594 118.777344 176.054688 118.488281 C 176.339844 118.488281 176.628906 118.394531 176.820312 118.296875 C 176.917969 118.203125 177.011719 118.203125 177.109375 118.105469 C 179.792969 116.082031 183.054688 114.832031 186.414062 114.734375 C 186.414062 114.734375 186.507812 114.734375 186.507812 114.734375 C 187.085938 114.734375 187.660156 114.734375 188.234375 114.734375 C 188.234375 114.734375 188.234375 114.734375 188.332031 114.734375 C 191.785156 114.929688 195.046875 116.082031 197.734375 118.105469 C 197.925781 118.296875 198.210938 118.394531 198.5 118.488281 C 198.597656 118.488281 198.691406 118.488281 198.789062 118.488281 C 199.171875 118.488281 199.554688 118.488281 199.84375 118.488281 C 204.925781 118.488281 209.722656 116.660156 213.558594 113.386719 C 214.039062 113.003906 214.230469 112.425781 214.230469 111.847656 C 214.710938 102.605469 222.195312 95.484375 231.5 95.484375 L 235.625 95.484375 C 236.488281 98.273438 238.980469 100.296875 242.050781 100.296875 C 245.792969 100.296875 248.765625 97.3125 248.765625 93.558594 C 248.765625 89.804688 245.886719 86.722656 242.144531 86.722656 Z M 242.144531 86.722656 " fill-opacity="1" fill-rule="nonzero"/></g><path fill="#00adef" d="M 206.75 140.535156 C 207.710938 138.511719 208.285156 136.203125 208.476562 133.890625 L 226.125 133.890625 C 226.988281 136.683594 229.484375 138.707031 232.554688 138.707031 C 236.292969 138.707031 239.269531 135.722656 239.269531 131.96875 C 239.269531 128.210938 236.292969 125.226562 232.554688 125.226562 C 229.484375 125.226562 226.988281 127.25 226.125 130.042969 L 204.734375 130.042969 L 204.734375 131.96875 C 204.734375 135.335938 203.777344 138.511719 202.144531 141.113281 C 202.527344 141.207031 202.914062 141.402344 203.199219 141.59375 C 204.351562 141.015625 205.503906 140.726562 206.75 140.535156 Z M 206.75 140.535156 " fill-opacity="1" fill-rule="nonzero"/><g clip-path="url(#id2)"><path fill="#00adef" d="M 242.144531 163.734375 C 239.078125 163.734375 236.582031 165.753906 235.71875 168.546875 L 231.59375 168.546875 C 230.828125 168.546875 229.964844 168.449219 229.195312 168.355469 L 229.003906 172.203125 C 229.867188 172.300781 230.636719 172.398438 231.5 172.398438 L 235.625 172.398438 C 236.488281 175.1875 238.980469 177.210938 242.050781 177.210938 C 245.792969 177.210938 248.765625 174.226562 248.765625 170.472656 C 248.765625 166.71875 245.886719 163.734375 242.144531 163.734375 Z M 242.144531 163.734375 " fill-opacity="1" fill-rule="nonzero"/></g><g clip-path="url(#id3)"><path fill="#00adef" d="M 198.117188 144.289062 C 197.253906 144.289062 196.484375 144.386719 195.71875 144.671875 L 195.71875 139.667969 C 195.71875 135.433594 192.265625 131.96875 188.042969 131.96875 C 183.824219 131.96875 180.371094 135.433594 180.371094 139.667969 L 180.371094 166.140625 L 177.972656 163.253906 C 176.535156 161.421875 174.328125 160.363281 172.023438 160.363281 C 170.203125 160.363281 168.476562 161.039062 167.132812 162.195312 C 163.96875 164.890625 163.488281 169.703125 166.171875 172.976562 L 180.65625 190.878906 L 180.945312 192.421875 C 182.097656 199.832031 188.332031 205.222656 195.8125 205.222656 L 209.4375 205.222656 C 217.589844 205.222656 224.207031 198.773438 224.496094 190.589844 L 225.839844 158.054688 C 225.933594 155.9375 225.167969 153.914062 223.730469 152.472656 C 222.289062 150.929688 220.371094 150.160156 218.261719 150.160156 C 217.398438 150.160156 216.535156 150.351562 215.765625 150.640625 C 215.09375 147.082031 212.027344 144.386719 208.378906 144.386719 L 208.285156 144.386719 C 206.367188 144.386719 204.640625 145.058594 203.296875 146.308594 C 201.953125 145.15625 200.226562 144.386719 198.308594 144.386719 L 198.117188 144.386719 Z M 201.953125 151.894531 L 201.953125 163.734375 L 204.449219 163.542969 L 204.449219 151.894531 C 204.449219 149.777344 206.078125 148.140625 208.1875 148.140625 L 208.285156 148.140625 C 210.300781 148.140625 212.027344 149.777344 212.027344 151.894531 L 212.027344 163.058594 L 214.519531 162.867188 L 214.519531 157.667969 C 214.519531 155.550781 216.152344 153.914062 218.261719 153.914062 C 220.371094 153.914062 222.097656 155.648438 222 157.765625 L 220.660156 190.300781 C 220.46875 196.367188 215.480469 201.277344 209.4375 201.277344 L 195.71875 201.277344 C 190.15625 201.277344 185.453125 197.234375 184.589844 191.746094 L 184.207031 189.148438 L 169.148438 170.472656 C 167.804688 168.835938 168.09375 166.429688 169.625 165.082031 C 170.296875 164.503906 171.257812 164.214844 172.121094 164.214844 C 173.273438 164.214844 174.328125 164.695312 175.09375 165.660156 L 184.304688 177.019531 L 184.304688 139.667969 C 184.304688 137.550781 186.03125 135.816406 188.140625 135.816406 C 190.25 135.816406 191.976562 137.550781 191.976562 139.667969 L 191.976562 164.40625 L 194.472656 164.214844 L 194.472656 151.894531 C 194.472656 149.777344 196.101562 148.140625 198.210938 148.140625 L 198.308594 148.140625 C 200.226562 148.140625 201.953125 149.777344 201.953125 151.894531 Z M 201.953125 151.894531 " fill-opacity="1" fill-rule="nonzero"/></g><path fill="#00adef" d="M 160.609375 152.183594 C 160.128906 161.421875 152.648438 168.546875 143.34375 168.546875 L 139.21875 168.546875 C 138.355469 165.753906 135.859375 163.734375 132.792969 163.734375 C 129.050781 163.734375 126.078125 166.71875 126.078125 170.472656 C 126.078125 174.226562 129.050781 177.210938 132.792969 177.210938 C 135.859375 177.210938 138.355469 175.1875 139.21875 172.398438 L 143.34375 172.398438 C 154.375 172.398438 163.488281 163.925781 164.351562 152.953125 C 167.421875 150.546875 171.257812 149.199219 175.285156 149.292969 C 175.574219 149.488281 175.863281 149.679688 176.148438 149.871094 C 176.148438 149.871094 176.246094 149.871094 176.246094 149.96875 C 176.339844 150.0625 176.4375 150.0625 176.535156 150.160156 L 176.535156 145.445312 C 172.695312 142.265625 170.203125 137.453125 170.203125 132.0625 L 170.203125 130.136719 L 148.8125 130.136719 C 147.949219 127.347656 145.453125 125.324219 142.382812 125.324219 C 138.644531 125.324219 135.667969 128.308594 135.667969 132.0625 C 135.667969 135.816406 138.644531 138.800781 142.382812 138.800781 C 145.453125 138.800781 147.949219 136.78125 148.8125 133.988281 L 166.460938 133.988281 C 166.84375 138.511719 168.667969 142.554688 171.449219 145.828125 C 167.707031 146.503906 164.160156 148.140625 161.183594 150.640625 C 160.800781 150.929688 160.609375 151.507812 160.609375 152.183594 Z M 160.609375 152.183594 " fill-opacity="1" fill-rule="nonzero"/><path fill="#00adef" d="M 176.535156 139.667969 L 176.535156 139.1875 C 176.535156 132.832031 181.714844 127.636719 188.042969 127.636719 C 193.992188 127.636719 198.882812 132.160156 199.460938 138.03125 C 200.417969 136.203125 200.898438 134.179688 200.898438 131.96875 C 200.898438 124.554688 194.855469 118.488281 187.46875 118.488281 C 180.082031 118.488281 174.039062 124.554688 174.039062 131.96875 C 174.039062 134.855469 175 137.550781 176.535156 139.765625 Z M 176.535156 139.667969 " fill-opacity="1" fill-rule="nonzero"/><g fill="#011c43" fill-opacity="1"><g transform="translate(83.306029, 246.294301)"><g><path d="M 6.84375 -17.109375 L 0.109375 -17.109375 L 0.109375 -20.296875 L 17.34375 -20.296875 L 17.34375 -17.109375 L 10.609375 -17.109375 L 10.609375 0 L 6.84375 0 Z M 6.84375 -17.109375 "/></g></g></g><g fill="#011c43" fill-opacity="1"><g transform="translate(101.832322, 246.294301)"><g><path d="M 12.203125 0.296875 C 10.140625 0.296875 8.273438 -0.148438 6.609375 -1.046875 C 4.953125 -1.953125 3.648438 -3.203125 2.703125 -4.796875 C 1.753906 -6.390625 1.28125 -8.175781 1.28125 -10.15625 C 1.28125 -12.125 1.753906 -13.90625 2.703125 -15.5 C 3.648438 -17.09375 4.953125 -18.335938 6.609375 -19.234375 C 8.273438 -20.140625 10.140625 -20.59375 12.203125 -20.59375 C 14.273438 -20.59375 16.140625 -20.140625 17.796875 -19.234375 C 19.460938 -18.335938 20.769531 -17.097656 21.71875 -15.515625 C 22.664062 -13.929688 23.140625 -12.144531 23.140625 -10.15625 C 23.140625 -8.15625 22.664062 -6.363281 21.71875 -4.78125 C 20.769531 -3.195312 19.460938 -1.953125 17.796875 -1.046875 C 16.140625 -0.148438 14.273438 0.296875 12.203125 0.296875 Z M 12.203125 -3.015625 C 13.554688 -3.015625 14.773438 -3.316406 15.859375 -3.921875 C 16.941406 -4.535156 17.789062 -5.390625 18.40625 -6.484375 C 19.03125 -7.578125 19.34375 -8.800781 19.34375 -10.15625 C 19.34375 -11.507812 19.03125 -12.726562 18.40625 -13.8125 C 17.789062 -14.90625 16.941406 -15.753906 15.859375 -16.359375 C 14.773438 -16.972656 13.554688 -17.28125 12.203125 -17.28125 C 10.847656 -17.28125 9.628906 -16.972656 8.546875 -16.359375 C 7.472656 -15.753906 6.625 -14.90625 6 -13.8125 C 5.382812 -12.726562 5.078125 -11.507812 5.078125 -10.15625 C 5.078125 -8.800781 5.382812 -7.578125 6 -6.484375 C 6.625 -5.390625 7.472656 -4.535156 8.546875 -3.921875 C 9.628906 -3.316406 10.847656 -3.015625 12.203125 -3.015625 Z M 12.203125 -3.015625 "/></g></g></g><g fill="#011c43" fill-opacity="1"><g transform="translate(127.316736, 246.294301)"><g><path d="M 11.453125 0.296875 C 8.648438 0.296875 6.460938 -0.488281 4.890625 -2.0625 C 3.328125 -3.644531 2.546875 -5.90625 2.546875 -8.84375 L 2.546875 -20.296875 L 6.328125 -20.296875 L 6.328125 -8.984375 C 6.328125 -5.003906 8.046875 -3.015625 11.484375 -3.015625 C 14.898438 -3.015625 16.609375 -5.003906 16.609375 -8.984375 L 16.609375 -20.296875 L 20.328125 -20.296875 L 20.328125 -8.84375 C 20.328125 -5.90625 19.546875 -3.644531 17.984375 -2.0625 C 16.429688 -0.488281 14.253906 0.296875 11.453125 0.296875 Z M 11.453125 0.296875 "/></g></g></g><g fill="#011c43" fill-opacity="1"><g transform="translate(151.264567, 246.294301)"><g><path d="M 12.125 0.296875 C 10.070312 0.296875 8.21875 -0.148438 6.5625 -1.046875 C 4.914062 -1.953125 3.625 -3.195312 2.6875 -4.78125 C 1.75 -6.363281 1.28125 -8.15625 1.28125 -10.15625 C 1.28125 -12.144531 1.753906 -13.929688 2.703125 -15.515625 C 3.648438 -17.097656 4.945312 -18.335938 6.59375 -19.234375 C 8.25 -20.140625 10.101562 -20.59375 12.15625 -20.59375 C 13.8125 -20.59375 15.328125 -20.300781 16.703125 -19.71875 C 18.078125 -19.132812 19.238281 -18.296875 20.1875 -17.203125 L 17.75 -14.90625 C 16.28125 -16.488281 14.472656 -17.28125 12.328125 -17.28125 C 10.929688 -17.28125 9.679688 -16.972656 8.578125 -16.359375 C 7.484375 -15.753906 6.625 -14.910156 6 -13.828125 C 5.382812 -12.742188 5.078125 -11.519531 5.078125 -10.15625 C 5.078125 -8.78125 5.382812 -7.550781 6 -6.46875 C 6.625 -5.382812 7.484375 -4.535156 8.578125 -3.921875 C 9.679688 -3.316406 10.929688 -3.015625 12.328125 -3.015625 C 14.472656 -3.015625 16.28125 -3.816406 17.75 -5.421875 L 20.1875 -3.109375 C 19.238281 -2.003906 18.070312 -1.160156 16.6875 -0.578125 C 15.300781 0.00390625 13.78125 0.296875 12.125 0.296875 Z M 12.125 0.296875 "/></g></g></g><g fill="#011c43" fill-opacity="1"><g transform="translate(173.414879, 246.294301)"><g><path d="M 20.765625 -20.296875 L 20.765625 0 L 17 0 L 17 -8.703125 L 6.5 -8.703125 L 6.5 0 L 2.71875 0 L 2.71875 -20.296875 L 6.5 -20.296875 L 6.5 -11.921875 L 17 -11.921875 L 17 -20.296875 Z M 20.765625 -20.296875 "/></g></g></g><g fill="#011c43" fill-opacity="1"><g transform="translate(197.971541, 246.294301)"><g/></g></g><g fill="#011c43" fill-opacity="1"><g transform="translate(207.046385, 246.294301)"><g><path d="M 6.84375 -17.109375 L 0.109375 -17.109375 L 0.109375 -20.296875 L 17.34375 -20.296875 L 17.34375 -17.109375 L 10.609375 -17.109375 L 10.609375 0 L 6.84375 0 Z M 6.84375 -17.109375 "/></g></g></g><g fill="#011c43" fill-opacity="1"><g transform="translate(225.572674, 246.294301)"><g><path d="M 17.953125 -3.15625 L 17.953125 0 L 2.71875 0 L 2.71875 -20.296875 L 17.546875 -20.296875 L 17.546875 -17.140625 L 6.5 -17.140625 L 6.5 -11.859375 L 16.296875 -11.859375 L 16.296875 -8.765625 L 6.5 -8.765625 L 6.5 -3.15625 Z M 17.953125 -3.15625 "/></g></g></g><g fill="#011c43" fill-opacity="1"><g transform="translate(246.070427, 246.294301)"><g><path d="M 12.125 0.296875 C 10.070312 0.296875 8.21875 -0.148438 6.5625 -1.046875 C 4.914062 -1.953125 3.625 -3.195312 2.6875 -4.78125 C 1.75 -6.363281 1.28125 -8.15625 1.28125 -10.15625 C 1.28125 -12.144531 1.753906 -13.929688 2.703125 -15.515625 C 3.648438 -17.097656 4.945312 -18.335938 6.59375 -19.234375 C 8.25 -20.140625 10.101562 -20.59375 12.15625 -20.59375 C 13.8125 -20.59375 15.328125 -20.300781 16.703125 -19.71875 C 18.078125 -19.132812 19.238281 -18.296875 20.1875 -17.203125 L 17.75 -14.90625 C 16.28125 -16.488281 14.472656 -17.28125 12.328125 -17.28125 C 10.929688 -17.28125 9.679688 -16.972656 8.578125 -16.359375 C 7.484375 -15.753906 6.625 -14.910156 6 -13.828125 C 5.382812 -12.742188 5.078125 -11.519531 5.078125 -10.15625 C 5.078125 -8.78125 5.382812 -7.550781 6 -6.46875 C 6.625 -5.382812 7.484375 -4.535156 8.578125 -3.921875 C 9.679688 -3.316406 10.929688 -3.015625 12.328125 -3.015625 C 14.472656 -3.015625 16.28125 -3.816406 17.75 -5.421875 L 20.1875 -3.109375 C 19.238281 -2.003906 18.070312 -1.160156 16.6875 -0.578125 C 15.300781 0.00390625 13.78125 0.296875 12.125 0.296875 Z M 12.125 0.296875 "/></g></g></g><g fill="#011c43" fill-opacity="1"><g transform="translate(268.220739, 246.294301)"><g><path d="M 20.765625 -20.296875 L 20.765625 0 L 17 0 L 17 -8.703125 L 6.5 -8.703125 L 6.5 0 L 2.71875 0 L 2.71875 -20.296875 L 6.5 -20.296875 L 6.5 -11.921875 L 17 -11.921875 L 17 -20.296875 Z M 20.765625 -20.296875 "/></g></g></g><g fill="#011c43" fill-opacity="1"><g transform="translate(120.648856, 266.094271)"><g><path d="M 3.25 -8.265625 L 0.046875 -8.265625 L 0.046875 -9.09375 L 7.40625 -9.09375 L 7.40625 -8.265625 L 4.21875 -8.265625 L 4.21875 0 L 3.25 0 Z M 3.25 -8.265625 "/></g></g></g><g fill="#011c43" fill-opacity="1"><g transform="translate(132.476614, 266.094271)"><g><path d="M 7.921875 -0.828125 L 7.921875 0 L 1.484375 0 L 1.484375 -9.09375 L 7.71875 -9.09375 L 7.71875 -8.265625 L 2.4375 -8.265625 L 2.4375 -5.03125 L 7.15625 -5.03125 L 7.15625 -4.21875 L 2.4375 -4.21875 L 2.4375 -0.828125 Z M 7.921875 -0.828125 "/></g></g></g><g fill="#011c43" fill-opacity="1"><g transform="translate(145.538996, 266.094271)"><g><path d="M 5.4375 0.078125 C 4.53125 0.078125 3.710938 -0.117188 2.984375 -0.515625 C 2.265625 -0.921875 1.695312 -1.472656 1.28125 -2.171875 C 0.875 -2.878906 0.671875 -3.671875 0.671875 -4.546875 C 0.671875 -5.421875 0.875 -6.210938 1.28125 -6.921875 C 1.695312 -7.628906 2.269531 -8.179688 3 -8.578125 C 3.726562 -8.972656 4.546875 -9.171875 5.453125 -9.171875 C 6.128906 -9.171875 6.75 -9.054688 7.3125 -8.828125 C 7.882812 -8.609375 8.375 -8.285156 8.78125 -7.859375 L 8.15625 -7.234375 C 7.445312 -7.953125 6.550781 -8.3125 5.46875 -8.3125 C 4.75 -8.3125 4.09375 -8.144531 3.5 -7.8125 C 2.914062 -7.488281 2.457031 -7.039062 2.125 -6.46875 C 1.789062 -5.894531 1.625 -5.253906 1.625 -4.546875 C 1.625 -3.835938 1.789062 -3.195312 2.125 -2.625 C 2.457031 -2.050781 2.914062 -1.597656 3.5 -1.265625 C 4.09375 -0.941406 4.75 -0.78125 5.46875 -0.78125 C 6.5625 -0.78125 7.457031 -1.144531 8.15625 -1.875 L 8.78125 -1.265625 C 8.375 -0.828125 7.882812 -0.492188 7.3125 -0.265625 C 6.738281 -0.0351562 6.113281 0.078125 5.4375 0.078125 Z M 5.4375 0.078125 "/></g></g></g><g fill="#011c43" fill-opacity="1"><g transform="translate(159.251171, 266.094271)"><g><path d="M 9.09375 -9.09375 L 9.09375 0 L 8.140625 0 L 8.140625 -4.203125 L 2.4375 -4.203125 L 2.4375 0 L 1.484375 0 L 1.484375 -9.09375 L 2.4375 -9.09375 L 2.4375 -5.046875 L 8.140625 -5.046875 L 8.140625 -9.09375 Z M 9.09375 -9.09375 "/></g></g></g><g fill="#011c43" fill-opacity="1"><g transform="translate(174.184972, 266.094271)"><g><path d="M 9.09375 -9.09375 L 9.09375 0 L 8.296875 0 L 2.4375 -7.390625 L 2.4375 0 L 1.484375 0 L 1.484375 -9.09375 L 2.28125 -9.09375 L 8.140625 -1.71875 L 8.140625 -9.09375 Z M 9.09375 -9.09375 "/></g></g></g><g fill="#011c43" fill-opacity="1"><g transform="translate(189.118773, 266.094271)"><g><path d="M 5.453125 0.078125 C 4.554688 0.078125 3.738281 -0.117188 3 -0.515625 C 2.269531 -0.921875 1.695312 -1.472656 1.28125 -2.171875 C 0.875 -2.878906 0.671875 -3.671875 0.671875 -4.546875 C 0.671875 -5.421875 0.875 -6.207031 1.28125 -6.90625 C 1.695312 -7.613281 2.269531 -8.164062 3 -8.5625 C 3.738281 -8.96875 4.554688 -9.171875 5.453125 -9.171875 C 6.359375 -9.171875 7.171875 -8.972656 7.890625 -8.578125 C 8.617188 -8.179688 9.191406 -7.628906 9.609375 -6.921875 C 10.023438 -6.210938 10.234375 -5.421875 10.234375 -4.546875 C 10.234375 -3.671875 10.023438 -2.878906 9.609375 -2.171875 C 9.191406 -1.472656 8.617188 -0.921875 7.890625 -0.515625 C 7.171875 -0.117188 6.359375 0.078125 5.453125 0.078125 Z M 5.453125 -0.78125 C 6.171875 -0.78125 6.820312 -0.941406 7.40625 -1.265625 C 7.988281 -1.585938 8.441406 -2.035156 8.765625 -2.609375 C 9.097656 -3.191406 9.265625 -3.835938 9.265625 -4.546875 C 9.265625 -5.253906 9.097656 -5.894531 8.765625 -6.46875 C 8.441406 -7.050781 7.988281 -7.503906 7.40625 -7.828125 C 6.820312 -8.148438 6.171875 -8.3125 5.453125 -8.3125 C 4.734375 -8.3125 4.082031 -8.148438 3.5 -7.828125 C 2.914062 -7.503906 2.457031 -7.050781 2.125 -6.46875 C 1.789062 -5.894531 1.625 -5.253906 1.625 -4.546875 C 1.625 -3.835938 1.789062 -3.191406 2.125 -2.609375 C 2.457031 -2.035156 2.914062 -1.585938 3.5 -1.265625 C 4.082031 -0.941406 4.734375 -0.78125 5.453125 -0.78125 Z M 5.453125 -0.78125 "/></g></g></g><g fill="#011c43" fill-opacity="1"><g transform="translate(204.390473, 266.094271)"><g><path d="M 1.484375 -9.09375 L 2.4375 -9.09375 L 2.4375 -0.828125 L 7.546875 -0.828125 L 7.546875 0 L 1.484375 0 Z M 1.484375 -9.09375 "/></g></g></g><g fill="#011c43" fill-opacity="1"><g transform="translate(216.413171, 266.094271)"><g><path d="M 5.453125 0.078125 C 4.554688 0.078125 3.738281 -0.117188 3 -0.515625 C 2.269531 -0.921875 1.695312 -1.472656 1.28125 -2.171875 C 0.875 -2.878906 0.671875 -3.671875 0.671875 -4.546875 C 0.671875 -5.421875 0.875 -6.207031 1.28125 -6.90625 C 1.695312 -7.613281 2.269531 -8.164062 3 -8.5625 C 3.738281 -8.96875 4.554688 -9.171875 5.453125 -9.171875 C 6.359375 -9.171875 7.171875 -8.972656 7.890625 -8.578125 C 8.617188 -8.179688 9.191406 -7.628906 9.609375 -6.921875 C 10.023438 -6.210938 10.234375 -5.421875 10.234375 -4.546875 C 10.234375 -3.671875 10.023438 -2.878906 9.609375 -2.171875 C 9.191406 -1.472656 8.617188 -0.921875 7.890625 -0.515625 C 7.171875 -0.117188 6.359375 0.078125 5.453125 0.078125 Z M 5.453125 -0.78125 C 6.171875 -0.78125 6.820312 -0.941406 7.40625 -1.265625 C 7.988281 -1.585938 8.441406 -2.035156 8.765625 -2.609375 C 9.097656 -3.191406 9.265625 -3.835938 9.265625 -4.546875 C 9.265625 -5.253906 9.097656 -5.894531 8.765625 -6.46875 C 8.441406 -7.050781 7.988281 -7.503906 7.40625 -7.828125 C 6.820312 -8.148438 6.171875 -8.3125 5.453125 -8.3125 C 4.734375 -8.3125 4.082031 -8.148438 3.5 -7.828125 C 2.914062 -7.503906 2.457031 -7.050781 2.125 -6.46875 C 1.789062 -5.894531 1.625 -5.253906 1.625 -4.546875 C 1.625 -3.835938 1.789062 -3.191406 2.125 -2.609375 C 2.457031 -2.035156 2.914062 -1.585938 3.5 -1.265625 C 4.082031 -0.941406 4.734375 -0.78125 5.453125 -0.78125 Z M 5.453125 -0.78125 "/></g></g></g><g fill="#011c43" fill-opacity="1"><g transform="translate(231.684864, 266.094271)"><g><path d="M 7.890625 -4.546875 L 8.8125 -4.546875 L 8.8125 -1.078125 C 8.382812 -0.703125 7.878906 -0.414062 7.296875 -0.21875 C 6.722656 -0.0195312 6.113281 0.078125 5.46875 0.078125 C 4.5625 0.078125 3.742188 -0.117188 3.015625 -0.515625 C 2.285156 -0.921875 1.710938 -1.472656 1.296875 -2.171875 C 0.878906 -2.878906 0.671875 -3.671875 0.671875 -4.546875 C 0.671875 -5.421875 0.878906 -6.210938 1.296875 -6.921875 C 1.710938 -7.628906 2.285156 -8.179688 3.015625 -8.578125 C 3.742188 -8.972656 4.566406 -9.171875 5.484375 -9.171875 C 6.179688 -9.171875 6.816406 -9.0625 7.390625 -8.84375 C 7.972656 -8.625 8.460938 -8.296875 8.859375 -7.859375 L 8.265625 -7.25 C 7.546875 -7.957031 6.632812 -8.3125 5.53125 -8.3125 C 4.789062 -8.3125 4.125 -8.148438 3.53125 -7.828125 C 2.9375 -7.503906 2.46875 -7.050781 2.125 -6.46875 C 1.789062 -5.894531 1.625 -5.253906 1.625 -4.546875 C 1.625 -3.835938 1.789062 -3.195312 2.125 -2.625 C 2.46875 -2.050781 2.929688 -1.597656 3.515625 -1.265625 C 4.109375 -0.941406 4.773438 -0.78125 5.515625 -0.78125 C 6.453125 -0.78125 7.242188 -1.015625 7.890625 -1.484375 Z M 7.890625 -4.546875 "/></g></g></g><g fill="#011c43" fill-opacity="1"><g transform="translate(246.098823, 266.094271)"><g><path d="M 4.609375 -3.140625 L 4.609375 0 L 3.65625 0 L 3.65625 -3.140625 L 0.015625 -9.09375 L 1.046875 -9.09375 L 4.15625 -3.984375 L 7.28125 -9.09375 L 8.234375 -9.09375 Z M 4.609375 -3.140625 "/></g></g></g></svg>