<svg xmlns="http://www.w3.org/2000/svg" xmlns:xlink="http://www.w3.org/1999/xlink" width="500" zoomAndPan="magnify" viewBox="0 0 375 374.999991" height="500" preserveAspectRatio="xMidYMid meet" version="1.0"><defs><g/><clipPath id="id1"><path d="M 126 91.847656 L 248.921875 91.847656 L 248.921875 124 L 126 124 Z M 126 91.847656 " clip-rule="nonzero"/></clipPath><clipPath id="id2"><path d="M 229 168 L 248.921875 168 L 248.921875 183 L 229 183 Z M 229 168 " clip-rule="nonzero"/></clipPath><clipPath id="id3"><path d="M 164 137 L 226 137 L 226 210.347656 L 164 210.347656 Z M 164 137 " clip-rule="nonzero"/></clipPath></defs><rect x="-37.5" width="450" fill="#ffffff" y="-37.499999" height="449.999989" fill-opacity="1"/><rect x="-37.5" width="450" fill="#011c43" y="-37.499999" height="449.999989" fill-opacity="1"/><g clip-path="url(#id1)"><path fill="#00adef" d="M 242.144531 91.847656 C 239.078125 91.847656 236.582031 93.871094 235.71875 96.660156 L 231.59375 96.660156 C 220.5625 96.660156 211.449219 105.132812 210.585938 116.105469 C 207.515625 118.511719 203.679688 119.859375 199.652344 119.765625 C 196.390625 117.453125 192.648438 116.203125 188.621094 115.914062 C 187.949219 115.914062 187.179688 115.914062 186.507812 115.914062 C 182.480469 116.105469 178.738281 117.453125 175.476562 119.765625 C 171.449219 119.859375 167.613281 118.511719 164.542969 116.105469 C 163.488281 105.132812 154.375 96.660156 143.34375 96.660156 L 139.21875 96.660156 C 138.355469 93.871094 135.859375 91.847656 132.792969 91.847656 C 129.050781 91.847656 126.078125 94.832031 126.078125 98.585938 C 126.078125 102.339844 129.050781 105.324219 132.792969 105.324219 C 135.859375 105.324219 138.355469 103.304688 139.21875 100.511719 L 143.34375 100.511719 C 152.648438 100.511719 160.226562 107.828125 160.609375 117.164062 C 160.609375 117.742188 160.898438 118.222656 161.28125 118.511719 C 165.40625 122.074219 170.683594 123.902344 176.054688 123.617188 C 176.339844 123.617188 176.628906 123.519531 176.820312 123.421875 C 176.917969 123.328125 177.011719 123.328125 177.109375 123.230469 C 179.792969 121.207031 183.054688 119.957031 186.414062 119.859375 C 186.414062 119.859375 186.507812 119.859375 186.507812 119.859375 C 187.085938 119.859375 187.660156 119.859375 188.234375 119.859375 C 188.234375 119.859375 188.234375 119.859375 188.332031 119.859375 C 191.785156 120.054688 195.046875 121.207031 197.734375 123.230469 C 197.925781 123.421875 198.210938 123.519531 198.5 123.617188 C 198.597656 123.617188 198.691406 123.617188 198.789062 123.617188 C 199.171875 123.617188 199.554688 123.617188 199.84375 123.617188 C 204.925781 123.617188 209.722656 121.785156 213.558594 118.511719 C 214.039062 118.128906 214.230469 117.550781 214.230469 116.972656 C 214.710938 107.730469 222.195312 100.609375 231.5 100.609375 L 235.625 100.609375 C 236.488281 103.398438 238.980469 105.421875 242.050781 105.421875 C 245.792969 105.421875 248.765625 102.4375 248.765625 98.683594 C 248.765625 94.929688 245.886719 91.847656 242.144531 91.847656 Z M 242.144531 91.847656 " fill-opacity="1" fill-rule="nonzero"/></g><path fill="#00adef" d="M 206.75 145.660156 C 207.710938 143.636719 208.285156 141.328125 208.476562 139.015625 L 226.125 139.015625 C 226.988281 141.808594 229.484375 143.832031 232.554688 143.832031 C 236.292969 143.832031 239.269531 140.847656 239.269531 137.09375 C 239.269531 133.339844 236.292969 130.355469 232.554688 130.355469 C 229.484375 130.355469 226.988281 132.375 226.125 135.167969 L 204.734375 135.167969 L 204.734375 137.09375 C 204.734375 140.460938 203.777344 143.636719 202.144531 146.238281 C 202.527344 146.332031 202.914062 146.527344 203.199219 146.71875 C 204.351562 146.140625 205.503906 145.851562 206.75 145.660156 Z M 206.75 145.660156 " fill-opacity="1" fill-rule="nonzero"/><g clip-path="url(#id2)"><path fill="#00adef" d="M 242.144531 168.859375 C 239.078125 168.859375 236.582031 170.878906 235.71875 173.671875 L 231.59375 173.671875 C 230.828125 173.671875 229.964844 173.574219 229.195312 173.480469 L 229.003906 177.332031 C 229.867188 177.425781 230.636719 177.523438 231.5 177.523438 L 235.625 177.523438 C 236.488281 180.3125 238.980469 182.335938 242.050781 182.335938 C 245.792969 182.335938 248.765625 179.351562 248.765625 175.597656 C 248.765625 171.84375 245.886719 168.859375 242.144531 168.859375 Z M 242.144531 168.859375 " fill-opacity="1" fill-rule="nonzero"/></g><g clip-path="url(#id3)"><path fill="#00adef" d="M 198.117188 149.414062 C 197.253906 149.414062 196.484375 149.511719 195.71875 149.800781 L 195.71875 144.792969 C 195.71875 140.558594 192.265625 137.09375 188.042969 137.09375 C 183.824219 137.09375 180.371094 140.558594 180.371094 144.792969 L 180.371094 171.265625 L 177.972656 168.378906 C 176.535156 166.546875 174.328125 165.488281 172.023438 165.488281 C 170.203125 165.488281 168.476562 166.164062 167.132812 167.320312 C 163.96875 170.015625 163.488281 174.828125 166.171875 178.101562 L 180.65625 196.003906 L 180.945312 197.546875 C 182.097656 204.957031 188.332031 210.347656 195.8125 210.347656 L 209.4375 210.347656 C 217.589844 210.347656 224.207031 203.898438 224.496094 195.714844 L 225.839844 163.179688 C 225.933594 161.0625 225.167969 159.039062 223.730469 157.597656 C 222.289062 156.054688 220.371094 155.285156 218.261719 155.285156 C 217.398438 155.285156 216.535156 155.476562 215.765625 155.765625 C 215.09375 152.207031 212.027344 149.511719 208.378906 149.511719 L 208.285156 149.511719 C 206.367188 149.511719 204.640625 150.183594 203.296875 151.433594 C 201.953125 150.28125 200.226562 149.511719 198.308594 149.511719 L 198.117188 149.511719 Z M 201.953125 157.019531 L 201.953125 168.859375 L 204.449219 168.667969 L 204.449219 157.019531 C 204.449219 154.902344 206.078125 153.265625 208.1875 153.265625 L 208.285156 153.265625 C 210.300781 153.265625 212.027344 154.902344 212.027344 157.019531 L 212.027344 168.183594 L 214.519531 167.992188 L 214.519531 162.792969 C 214.519531 160.675781 216.152344 159.039062 218.261719 159.039062 C 220.371094 159.039062 222.097656 160.773438 222 162.890625 L 220.660156 195.425781 C 220.46875 201.492188 215.480469 206.402344 209.4375 206.402344 L 195.71875 206.402344 C 190.15625 206.402344 185.453125 202.359375 184.589844 196.871094 L 184.207031 194.273438 L 169.148438 175.597656 C 167.804688 173.960938 168.09375 171.554688 169.625 170.207031 C 170.296875 169.628906 171.257812 169.339844 172.121094 169.339844 C 173.273438 169.339844 174.328125 169.820312 175.09375 170.785156 L 184.304688 182.144531 L 184.304688 144.792969 C 184.304688 142.675781 186.03125 140.941406 188.140625 140.941406 C 190.25 140.941406 191.976562 142.675781 191.976562 144.792969 L 191.976562 169.53125 L 194.472656 169.339844 L 194.472656 157.019531 C 194.472656 154.902344 196.101562 153.265625 198.210938 153.265625 L 198.308594 153.265625 C 200.226562 153.265625 201.953125 154.902344 201.953125 157.019531 Z M 201.953125 157.019531 " fill-opacity="1" fill-rule="nonzero"/></g><path fill="#00adef" d="M 160.609375 157.308594 C 160.128906 166.546875 152.648438 173.671875 143.34375 173.671875 L 139.21875 173.671875 C 138.355469 170.878906 135.859375 168.859375 132.792969 168.859375 C 129.050781 168.859375 126.078125 171.84375 126.078125 175.597656 C 126.078125 179.351562 129.050781 182.335938 132.792969 182.335938 C 135.859375 182.335938 138.355469 180.3125 139.21875 177.523438 L 143.34375 177.523438 C 154.375 177.523438 163.488281 169.050781 164.351562 158.078125 C 167.421875 155.671875 171.257812 154.324219 175.285156 154.417969 C 175.574219 154.613281 175.863281 154.804688 176.148438 154.996094 C 176.148438 154.996094 176.246094 154.996094 176.246094 155.09375 C 176.339844 155.191406 176.4375 155.191406 176.535156 155.285156 L 176.535156 150.570312 C 172.695312 147.390625 170.203125 142.578125 170.203125 137.1875 L 170.203125 135.261719 L 148.8125 135.261719 C 147.949219 132.472656 145.453125 130.449219 142.382812 130.449219 C 138.644531 130.449219 135.667969 133.433594 135.667969 137.1875 C 135.667969 140.941406 138.644531 143.925781 142.382812 143.925781 C 145.453125 143.925781 147.949219 141.90625 148.8125 139.113281 L 166.460938 139.113281 C 166.84375 143.636719 168.667969 147.679688 171.449219 150.953125 C 167.707031 151.628906 164.160156 153.265625 161.183594 155.765625 C 160.800781 156.054688 160.609375 156.632812 160.609375 157.308594 Z M 160.609375 157.308594 " fill-opacity="1" fill-rule="nonzero"/><path fill="#00adef" d="M 176.535156 144.792969 L 176.535156 144.3125 C 176.535156 137.957031 181.714844 132.761719 188.042969 132.761719 C 193.992188 132.761719 198.882812 137.285156 199.460938 143.15625 C 200.417969 141.328125 200.898438 139.304688 200.898438 137.09375 C 200.898438 129.679688 194.855469 123.617188 187.46875 123.617188 C 180.082031 123.617188 174.039062 129.679688 174.039062 137.09375 C 174.039062 139.980469 175 142.675781 176.535156 144.890625 Z M 176.535156 144.792969 " fill-opacity="1" fill-rule="nonzero"/><g fill="#ffffff" fill-opacity="1"><g transform="translate(83.306029, 246.294301)"><g><path d="M 6.84375 -17.109375 L 0.109375 -17.109375 L 0.109375 -20.296875 L 17.34375 -20.296875 L 17.34375 -17.109375 L 10.609375 -17.109375 L 10.609375 0 L 6.84375 0 Z M 6.84375 -17.109375 "/></g></g></g><g fill="#ffffff" fill-opacity="1"><g transform="translate(101.832322, 246.294301)"><g><path d="M 12.203125 0.296875 C 10.140625 0.296875 8.273438 -0.148438 6.609375 -1.046875 C 4.953125 -1.953125 3.648438 -3.203125 2.703125 -4.796875 C 1.753906 -6.390625 1.28125 -8.175781 1.28125 -10.15625 C 1.28125 -12.125 1.753906 -13.90625 2.703125 -15.5 C 3.648438 -17.09375 4.953125 -18.335938 6.609375 -19.234375 C 8.273438 -20.140625 10.140625 -20.59375 12.203125 -20.59375 C 14.273438 -20.59375 16.140625 -20.140625 17.796875 -19.234375 C 19.460938 -18.335938 20.769531 -17.097656 21.71875 -15.515625 C 22.664062 -13.929688 23.140625 -12.144531 23.140625 -10.15625 C 23.140625 -8.15625 22.664062 -6.363281 21.71875 -4.78125 C 20.769531 -3.195312 19.460938 -1.953125 17.796875 -1.046875 C 16.140625 -0.148438 14.273438 0.296875 12.203125 0.296875 Z M 12.203125 -3.015625 C 13.554688 -3.015625 14.773438 -3.316406 15.859375 -3.921875 C 16.941406 -4.535156 17.789062 -5.390625 18.40625 -6.484375 C 19.03125 -7.578125 19.34375 -8.800781 19.34375 -10.15625 C 19.34375 -11.507812 19.03125 -12.726562 18.40625 -13.8125 C 17.789062 -14.90625 16.941406 -15.753906 15.859375 -16.359375 C 14.773438 -16.972656 13.554688 -17.28125 12.203125 -17.28125 C 10.847656 -17.28125 9.628906 -16.972656 8.546875 -16.359375 C 7.472656 -15.753906 6.625 -14.90625 6 -13.8125 C 5.382812 -12.726562 5.078125 -11.507812 5.078125 -10.15625 C 5.078125 -8.800781 5.382812 -7.578125 6 -6.484375 C 6.625 -5.390625 7.472656 -4.535156 8.546875 -3.921875 C 9.628906 -3.316406 10.847656 -3.015625 12.203125 -3.015625 Z M 12.203125 -3.015625 "/></g></g></g><g fill="#ffffff" fill-opacity="1"><g transform="translate(127.316736, 246.294301)"><g><path d="M 11.453125 0.296875 C 8.648438 0.296875 6.460938 -0.488281 4.890625 -2.0625 C 3.328125 -3.644531 2.546875 -5.90625 2.546875 -8.84375 L 2.546875 -20.296875 L 6.328125 -20.296875 L 6.328125 -8.984375 C 6.328125 -5.003906 8.046875 -3.015625 11.484375 -3.015625 C 14.898438 -3.015625 16.609375 -5.003906 16.609375 -8.984375 L 16.609375 -20.296875 L 20.328125 -20.296875 L 20.328125 -8.84375 C 20.328125 -5.90625 19.546875 -3.644531 17.984375 -2.0625 C 16.429688 -0.488281 14.253906 0.296875 11.453125 0.296875 Z M 11.453125 0.296875 "/></g></g></g><g fill="#ffffff" fill-opacity="1"><g transform="translate(151.264567, 246.294301)"><g><path d="M 12.125 0.296875 C 10.070312 0.296875 8.21875 -0.148438 6.5625 -1.046875 C 4.914062 -1.953125 3.625 -3.195312 2.6875 -4.78125 C 1.75 -6.363281 1.28125 -8.15625 1.28125 -10.15625 C 1.28125 -12.144531 1.753906 -13.929688 2.703125 -15.515625 C 3.648438 -17.097656 4.945312 -18.335938 6.59375 -19.234375 C 8.25 -20.140625 10.101562 -20.59375 12.15625 -20.59375 C 13.8125 -20.59375 15.328125 -20.300781 16.703125 -19.71875 C 18.078125 -19.132812 19.238281 -18.296875 20.1875 -17.203125 L 17.75 -14.90625 C 16.28125 -16.488281 14.472656 -17.28125 12.328125 -17.28125 C 10.929688 -17.28125 9.679688 -16.972656 8.578125 -16.359375 C 7.484375 -15.753906 6.625 -14.910156 6 -13.828125 C 5.382812 -12.742188 5.078125 -11.519531 5.078125 -10.15625 C 5.078125 -8.78125 5.382812 -7.550781 6 -6.46875 C 6.625 -5.382812 7.484375 -4.535156 8.578125 -3.921875 C 9.679688 -3.316406 10.929688 -3.015625 12.328125 -3.015625 C 14.472656 -3.015625 16.28125 -3.816406 17.75 -5.421875 L 20.1875 -3.109375 C 19.238281 -2.003906 18.070312 -1.160156 16.6875 -0.578125 C 15.300781 0.00390625 13.78125 0.296875 12.125 0.296875 Z M 12.125 0.296875 "/></g></g></g><g fill="#ffffff" fill-opacity="1"><g transform="translate(173.414879, 246.294301)"><g><path d="M 20.765625 -20.296875 L 20.765625 0 L 17 0 L 17 -8.703125 L 6.5 -8.703125 L 6.5 0 L 2.71875 0 L 2.71875 -20.296875 L 6.5 -20.296875 L 6.5 -11.921875 L 17 -11.921875 L 17 -20.296875 Z M 20.765625 -20.296875 "/></g></g></g><g fill="#ffffff" fill-opacity="1"><g transform="translate(197.971541, 246.294301)"><g/></g></g><g fill="#ffffff" fill-opacity="1"><g transform="translate(207.046385, 246.294301)"><g><path d="M 6.84375 -17.109375 L 0.109375 -17.109375 L 0.109375 -20.296875 L 17.34375 -20.296875 L 17.34375 -17.109375 L 10.609375 -17.109375 L 10.609375 0 L 6.84375 0 Z M 6.84375 -17.109375 "/></g></g></g><g fill="#ffffff" fill-opacity="1"><g transform="translate(225.572674, 246.294301)"><g><path d="M 17.953125 -3.15625 L 17.953125 0 L 2.71875 0 L 2.71875 -20.296875 L 17.546875 -20.296875 L 17.546875 -17.140625 L 6.5 -17.140625 L 6.5 -11.859375 L 16.296875 -11.859375 L 16.296875 -8.765625 L 6.5 -8.765625 L 6.5 -3.15625 Z M 17.953125 -3.15625 "/></g></g></g><g fill="#ffffff" fill-opacity="1"><g transform="translate(246.070427, 246.294301)"><g><path d="M 12.125 0.296875 C 10.070312 0.296875 8.21875 -0.148438 6.5625 -1.046875 C 4.914062 -1.953125 3.625 -3.195312 2.6875 -4.78125 C 1.75 -6.363281 1.28125 -8.15625 1.28125 -10.15625 C 1.28125 -12.144531 1.753906 -13.929688 2.703125 -15.515625 C 3.648438 -17.097656 4.945312 -18.335938 6.59375 -19.234375 C 8.25 -20.140625 10.101562 -20.59375 12.15625 -20.59375 C 13.8125 -20.59375 15.328125 -20.300781 16.703125 -19.71875 C 18.078125 -19.132812 19.238281 -18.296875 20.1875 -17.203125 L 17.75 -14.90625 C 16.28125 -16.488281 14.472656 -17.28125 12.328125 -17.28125 C 10.929688 -17.28125 9.679688 -16.972656 8.578125 -16.359375 C 7.484375 -15.753906 6.625 -14.910156 6 -13.828125 C 5.382812 -12.742188 5.078125 -11.519531 5.078125 -10.15625 C 5.078125 -8.78125 5.382812 -7.550781 6 -6.46875 C 6.625 -5.382812 7.484375 -4.535156 8.578125 -3.921875 C 9.679688 -3.316406 10.929688 -3.015625 12.328125 -3.015625 C 14.472656 -3.015625 16.28125 -3.816406 17.75 -5.421875 L 20.1875 -3.109375 C 19.238281 -2.003906 18.070312 -1.160156 16.6875 -0.578125 C 15.300781 0.00390625 13.78125 0.296875 12.125 0.296875 Z M 12.125 0.296875 "/></g></g></g><g fill="#ffffff" fill-opacity="1"><g transform="translate(268.220739, 246.294301)"><g><path d="M 20.765625 -20.296875 L 20.765625 0 L 17 0 L 17 -8.703125 L 6.5 -8.703125 L 6.5 0 L 2.71875 0 L 2.71875 -20.296875 L 6.5 -20.296875 L 6.5 -11.921875 L 17 -11.921875 L 17 -20.296875 Z M 20.765625 -20.296875 "/></g></g></g><g fill="#ffffff" fill-opacity="1"><g transform="translate(120.648856, 266.094299)"><g><path d="M 3.25 -8.265625 L 0.046875 -8.265625 L 0.046875 -9.09375 L 7.40625 -9.09375 L 7.40625 -8.265625 L 4.21875 -8.265625 L 4.21875 0 L 3.25 0 Z M 3.25 -8.265625 "/></g></g></g><g fill="#ffffff" fill-opacity="1"><g transform="translate(132.476614, 266.094299)"><g><path d="M 7.921875 -0.828125 L 7.921875 0 L 1.484375 0 L 1.484375 -9.09375 L 7.71875 -9.09375 L 7.71875 -8.265625 L 2.4375 -8.265625 L 2.4375 -5.03125 L 7.15625 -5.03125 L 7.15625 -4.21875 L 2.4375 -4.21875 L 2.4375 -0.828125 Z M 7.921875 -0.828125 "/></g></g></g><g fill="#ffffff" fill-opacity="1"><g transform="translate(145.538996, 266.094299)"><g><path d="M 5.4375 0.078125 C 4.53125 0.078125 3.710938 -0.117188 2.984375 -0.515625 C 2.265625 -0.921875 1.695312 -1.472656 1.28125 -2.171875 C 0.875 -2.878906 0.671875 -3.671875 0.671875 -4.546875 C 0.671875 -5.421875 0.875 -6.210938 1.28125 -6.921875 C 1.695312 -7.628906 2.269531 -8.179688 3 -8.578125 C 3.726562 -8.972656 4.546875 -9.171875 5.453125 -9.171875 C 6.128906 -9.171875 6.75 -9.054688 7.3125 -8.828125 C 7.882812 -8.609375 8.375 -8.285156 8.78125 -7.859375 L 8.15625 -7.234375 C 7.445312 -7.953125 6.550781 -8.3125 5.46875 -8.3125 C 4.75 -8.3125 4.09375 -8.144531 3.5 -7.8125 C 2.914062 -7.488281 2.457031 -7.039062 2.125 -6.46875 C 1.789062 -5.894531 1.625 -5.253906 1.625 -4.546875 C 1.625 -3.835938 1.789062 -3.195312 2.125 -2.625 C 2.457031 -2.050781 2.914062 -1.597656 3.5 -1.265625 C 4.09375 -0.941406 4.75 -0.78125 5.46875 -0.78125 C 6.5625 -0.78125 7.457031 -1.144531 8.15625 -1.875 L 8.78125 -1.265625 C 8.375 -0.828125 7.882812 -0.492188 7.3125 -0.265625 C 6.738281 -0.0351562 6.113281 0.078125 5.4375 0.078125 Z M 5.4375 0.078125 "/></g></g></g><g fill="#ffffff" fill-opacity="1"><g transform="translate(159.251171, 266.094299)"><g><path d="M 9.09375 -9.09375 L 9.09375 0 L 8.140625 0 L 8.140625 -4.203125 L 2.4375 -4.203125 L 2.4375 0 L 1.484375 0 L 1.484375 -9.09375 L 2.4375 -9.09375 L 2.4375 -5.046875 L 8.140625 -5.046875 L 8.140625 -9.09375 Z M 9.09375 -9.09375 "/></g></g></g><g fill="#ffffff" fill-opacity="1"><g transform="translate(174.184972, 266.094299)"><g><path d="M 9.09375 -9.09375 L 9.09375 0 L 8.296875 0 L 2.4375 -7.390625 L 2.4375 0 L 1.484375 0 L 1.484375 -9.09375 L 2.28125 -9.09375 L 8.140625 -1.71875 L 8.140625 -9.09375 Z M 9.09375 -9.09375 "/></g></g></g><g fill="#ffffff" fill-opacity="1"><g transform="translate(189.118773, 266.094299)"><g><path d="M 5.453125 0.078125 C 4.554688 0.078125 3.738281 -0.117188 3 -0.515625 C 2.269531 -0.921875 1.695312 -1.472656 1.28125 -2.171875 C 0.875 -2.878906 0.671875 -3.671875 0.671875 -4.546875 C 0.671875 -5.421875 0.875 -6.207031 1.28125 -6.90625 C 1.695312 -7.613281 2.269531 -8.164062 3 -8.5625 C 3.738281 -8.96875 4.554688 -9.171875 5.453125 -9.171875 C 6.359375 -9.171875 7.171875 -8.972656 7.890625 -8.578125 C 8.617188 -8.179688 9.191406 -7.628906 9.609375 -6.921875 C 10.023438 -6.210938 10.234375 -5.421875 10.234375 -4.546875 C 10.234375 -3.671875 10.023438 -2.878906 9.609375 -2.171875 C 9.191406 -1.472656 8.617188 -0.921875 7.890625 -0.515625 C 7.171875 -0.117188 6.359375 0.078125 5.453125 0.078125 Z M 5.453125 -0.78125 C 6.171875 -0.78125 6.820312 -0.941406 7.40625 -1.265625 C 7.988281 -1.585938 8.441406 -2.035156 8.765625 -2.609375 C 9.097656 -3.191406 9.265625 -3.835938 9.265625 -4.546875 C 9.265625 -5.253906 9.097656 -5.894531 8.765625 -6.46875 C 8.441406 -7.050781 7.988281 -7.503906 7.40625 -7.828125 C 6.820312 -8.148438 6.171875 -8.3125 5.453125 -8.3125 C 4.734375 -8.3125 4.082031 -8.148438 3.5 -7.828125 C 2.914062 -7.503906 2.457031 -7.050781 2.125 -6.46875 C 1.789062 -5.894531 1.625 -5.253906 1.625 -4.546875 C 1.625 -3.835938 1.789062 -3.191406 2.125 -2.609375 C 2.457031 -2.035156 2.914062 -1.585938 3.5 -1.265625 C 4.082031 -0.941406 4.734375 -0.78125 5.453125 -0.78125 Z M 5.453125 -0.78125 "/></g></g></g><g fill="#ffffff" fill-opacity="1"><g transform="translate(204.390473, 266.094299)"><g><path d="M 1.484375 -9.09375 L 2.4375 -9.09375 L 2.4375 -0.828125 L 7.546875 -0.828125 L 7.546875 0 L 1.484375 0 Z M 1.484375 -9.09375 "/></g></g></g><g fill="#ffffff" fill-opacity="1"><g transform="translate(216.413171, 266.094299)"><g><path d="M 5.453125 0.078125 C 4.554688 0.078125 3.738281 -0.117188 3 -0.515625 C 2.269531 -0.921875 1.695312 -1.472656 1.28125 -2.171875 C 0.875 -2.878906 0.671875 -3.671875 0.671875 -4.546875 C 0.671875 -5.421875 0.875 -6.207031 1.28125 -6.90625 C 1.695312 -7.613281 2.269531 -8.164062 3 -8.5625 C 3.738281 -8.96875 4.554688 -9.171875 5.453125 -9.171875 C 6.359375 -9.171875 7.171875 -8.972656 7.890625 -8.578125 C 8.617188 -8.179688 9.191406 -7.628906 9.609375 -6.921875 C 10.023438 -6.210938 10.234375 -5.421875 10.234375 -4.546875 C 10.234375 -3.671875 10.023438 -2.878906 9.609375 -2.171875 C 9.191406 -1.472656 8.617188 -0.921875 7.890625 -0.515625 C 7.171875 -0.117188 6.359375 0.078125 5.453125 0.078125 Z M 5.453125 -0.78125 C 6.171875 -0.78125 6.820312 -0.941406 7.40625 -1.265625 C 7.988281 -1.585938 8.441406 -2.035156 8.765625 -2.609375 C 9.097656 -3.191406 9.265625 -3.835938 9.265625 -4.546875 C 9.265625 -5.253906 9.097656 -5.894531 8.765625 -6.46875 C 8.441406 -7.050781 7.988281 -7.503906 7.40625 -7.828125 C 6.820312 -8.148438 6.171875 -8.3125 5.453125 -8.3125 C 4.734375 -8.3125 4.082031 -8.148438 3.5 -7.828125 C 2.914062 -7.503906 2.457031 -7.050781 2.125 -6.46875 C 1.789062 -5.894531 1.625 -5.253906 1.625 -4.546875 C 1.625 -3.835938 1.789062 -3.191406 2.125 -2.609375 C 2.457031 -2.035156 2.914062 -1.585938 3.5 -1.265625 C 4.082031 -0.941406 4.734375 -0.78125 5.453125 -0.78125 Z M 5.453125 -0.78125 "/></g></g></g><g fill="#ffffff" fill-opacity="1"><g transform="translate(231.684864, 266.094299)"><g><path d="M 7.890625 -4.546875 L 8.8125 -4.546875 L 8.8125 -1.078125 C 8.382812 -0.703125 7.878906 -0.414062 7.296875 -0.21875 C 6.722656 -0.0195312 6.113281 0.078125 5.46875 0.078125 C 4.5625 0.078125 3.742188 -0.117188 3.015625 -0.515625 C 2.285156 -0.921875 1.710938 -1.472656 1.296875 -2.171875 C 0.878906 -2.878906 0.671875 -3.671875 0.671875 -4.546875 C 0.671875 -5.421875 0.878906 -6.210938 1.296875 -6.921875 C 1.710938 -7.628906 2.285156 -8.179688 3.015625 -8.578125 C 3.742188 -8.972656 4.566406 -9.171875 5.484375 -9.171875 C 6.179688 -9.171875 6.816406 -9.0625 7.390625 -8.84375 C 7.972656 -8.625 8.460938 -8.296875 8.859375 -7.859375 L 8.265625 -7.25 C 7.546875 -7.957031 6.632812 -8.3125 5.53125 -8.3125 C 4.789062 -8.3125 4.125 -8.148438 3.53125 -7.828125 C 2.9375 -7.503906 2.46875 -7.050781 2.125 -6.46875 C 1.789062 -5.894531 1.625 -5.253906 1.625 -4.546875 C 1.625 -3.835938 1.789062 -3.195312 2.125 -2.625 C 2.46875 -2.050781 2.929688 -1.597656 3.515625 -1.265625 C 4.109375 -0.941406 4.773438 -0.78125 5.515625 -0.78125 C 6.453125 -0.78125 7.242188 -1.015625 7.890625 -1.484375 Z M 7.890625 -4.546875 "/></g></g></g><g fill="#ffffff" fill-opacity="1"><g transform="translate(246.098823, 266.094299)"><g><path d="M 4.609375 -3.140625 L 4.609375 0 L 3.65625 0 L 3.65625 -3.140625 L 0.015625 -9.09375 L 1.046875 -9.09375 L 4.15625 -3.984375 L 7.28125 -9.09375 L 8.234375 -9.09375 Z M 4.609375 -3.140625 "/></g></g></g></svg>